# xmcd CD database file
#
# Track frame offsets:
#	182
#	20990
#	39622
#	57970
#	83000
#	109602
#	130795
#	158527
#	169392
#	190705
#	216620
#	231025
#
# Disc length: 3529 seconds
#
# Revision: 1
# Processed by: cddbd v1.5.1PL0 Copyright (c) Steve Scherf et al.
# Submitted via: CDex 1.51
#
DISCID=a00dc70c
DTITLE=Hanspeter's Orchestra - Just recycled
DYEAR=1995
DGENRE=Jazz
TTITLE0=Gonna fly now
TTITLE1=Cherish
TTITLE2=Beauty and the beast
TTITLE3=Freedom song
TTITLE4=Finders keepers
TTITLE5=Makin' Whoopee
TTITLE6=Tribute to Miles
TTITLE7=Don't get around much anymore
TTITLE8=Coconut Champagne
TTITLE9=M.O.T.
TTITLE10=She's not mine to love
TTITLE11=Children of Sanchez
EXTD=YEAR: 1995
EXTT0=
EXTT1=
EXTT2=
EXTT3=
EXTT4=
EXTT5=
EXTT6=
EXTT7=
EXTT8=
EXTT9=
EXTT10=
EXTT11=
PLAYORDER=
